<svg id="Layer_1" data-name="Layer 1" xmlns="http://www.w3.org/2000/svg" viewBox="0 0 101.9 15.6">
<defs><style>.cls-1{fill:#222;}</style></defs>
<title>CY logo</title>
<path class="cls-1" d="M420.51,351.58a.72.72,0,0,0,.4-.7h0a.76.76,0,0,0-.2-.5,1.14,1.14,0,0,0-.8-.3h-1.4v3.1h1.4c.7,0,1.1-.3,1.1-.9h0C421.11,351.88,420.81,351.68,420.51,351.58Zm-1.5-1h.8a.46.46,0,0,1,.5.4h0c0,.3-.2.4-.6.4H419Zm1.5,1.7c0,.3-.2.4-.6.4H419v-.9h.9c.4,0,.6.2.6.5Z" transform="translate(-358.21 -337.58)"/>
<polygon class="cls-1" points="65.2 13.8 64.3 12.5 63.7 12.5 64.9 14.3 64.9 15.6 65.4 15.6 65.4 14.3 66.7 12.5 66 12.5 65.2 13.8"/>
<path class="cls-1" d="M438.51,351.48a.9.9,0,0,0,.1-.5.37.37,0,0,0-.1-.3c0-.1-.1-.2-.2-.3s-.2-.2-.3-.2a.75.75,0,0,0-.5-.1h-1.2v3.1h.6V352h.6l.6,1.2h.7l-.7-1.3A.78.78,0,0,0,438.51,351.48Zm-.6-.2a.37.37,0,0,1-.3.1H437v-.9h.6c.1,0,.3,0,.3.1a.37.37,0,0,1,.1.3C438.11,351.08,438,351.28,437.91,351.28Z" transform="translate(-358.21 -337.58)"/>
<rect class="cls-1" x="85.9" y="12.5" width="0.6" height="3.1"/>
<path class="cls-1" d="M442.31,351.48a.9.9,0,0,0,.1-.5.37.37,0,0,0-.1-.3c0-.1-.1-.2-.2-.3s-.2-.2-.3-.2a.75.75,0,0,0-.5-.1h-1.2v3.1h.6V352h.6l.6,1.2h.7l-.7-1.3A.78.78,0,0,0,442.31,351.48Zm-.6-.2a.37.37,0,0,1-.3.1h-.6v-.9h.6c.1,0,.3,0,.3.1a.37.37,0,0,1,.1.3C441.81,351.08,441.81,351.28,441.71,351.28Z" transform="translate(-358.21 -337.58)"/>
<polygon class="cls-1" points="72.1 12.5 71.2 13.9 70.2 12.5 69.7 12.5 69.5 15.6 70.1 15.6 70.2 13.5 71 14.7 71.3 14.7 72.1 13.4 72.2 15.6 72.8 15.6 72.6 12.5 72.1 12.5"/><path class="cls-1" d="M448.91,350.48a2.18,2.18,0,0,0-.5-.4,1.85,1.85,0,0,0-1.2,0,1,1,0,0,0-.5.4.85.85,0,0,0-.3.5,1.85,1.85,0,0,0,0,1.2,2.19,2.19,0,0,0,.3.5,1,1,0,0,0,.5.4,1.85,1.85,0,0,0,1.2,0,1,1,0,0,0,.5-.4.85.85,0,0,0,.3-.5,1.85,1.85,0,0,0,0-1.2A.55.55,0,0,0,448.91,350.48Zm-.2,1.5a.76.76,0,0,1-.2.4c-.1.1-.2.2-.3.2a.6.6,0,0,1-.4.1c-.2,0-.3,0-.4-.1s-.2-.1-.3-.2a.52.52,0,0,1-.2-.4c0-.1-.1-.3-.1-.4a.6.6,0,0,1,.1-.4c0-.1.1-.2.2-.3s.2-.2.3-.2a.6.6,0,0,1,.4-.1c.2,0,.3,0,.4.1s.2.1.3.2.2.2.2.3.1.3.1.4S448.71,351.88,448.71,352Z" transform="translate(-358.21 -337.58)"/>
<polygon class="cls-1" points="95.7 13 96.7 13 96.7 15.6 97.3 15.6 97.3 13 98.4 13 98.4 12.5 95.7 12.5 95.7 13"/><path class="cls-1" d="M433.41,350.08l-1.2,3.1h.6l.3-.8h1.2l.3.8h.7l-1.2-3.1Zm-.2,1.8.4-1.2.4,1.2Z" transform="translate(-358.21 -337.58)"/><polygon class="cls-1" points="92 13 93 13 93 15.6 93.6 15.6 93.6 13 94.7 13 94.7 12.5 92 12.5 92 13"/>
<path class="cls-1" d="M363.11,345.78a3.21,3.21,0,0,1-3.2-3.4,3,3,0,0,1,3.2-3.2,4.25,4.25,0,0,1,2.6,1l.8-1.3a4.93,4.93,0,0,0-3.5-1.3,4.68,4.68,0,0,0-4.8,4.8,4.73,4.73,0,0,0,4.9,4.9,5.1,5.1,0,0,0,3.7-1.5l-.9-1.2A4.1,4.1,0,0,1,363.11,345.78Z" transform="translate(-358.21 -337.58)"/><path class="cls-1" d="M374.31,337.58a4.85,4.85,0,1,0,0,9.7,4.84,4.84,0,0,0,4.9-4.9A4.76,4.76,0,0,0,374.31,337.58Zm0,8.2a3.19,3.19,0,0,1-3.1-3.4,3.08,3.08,0,0,1,3.1-3.2,3.14,3.14,0,0,1,3.1,3.2A3.19,3.19,0,0,1,374.31,345.78Z" transform="translate(-358.21 -337.58)"/>
<path class="cls-1" d="M388.51,343.78a2.1,2.1,0,0,1-4.2,0v-6h-1.7v6c0,2.1,1.5,3.5,3.8,3.5s3.8-1.4,3.8-3.5v-6h-1.7Z" transform="translate(-358.21 -337.58)"/><path class="cls-1" d="M399.41,343.18h0a2.78,2.78,0,0,0,1.6-2.6,2.87,2.87,0,0,0-1.5-2.6,4.09,4.09,0,0,0-1.9-.3h-3v9.4h1.7v-3.5h1.6l1.9,3.5h1.9l-1.9-3.5Zm-1.6-1h-1.5v-2.9h1.3c1.3,0,1.7.6,1.7,1.5A1.45,1.45,0,0,1,397.81,342.18Z" transform="translate(-358.21 -337.58)"/><polygon class="cls-1" points="46 1.6 49.1 1.6 49.1 9.6 50.8 9.6 50.8 1.6 53.9 1.6 53.9 0.2 46 0.2 46 1.6"/>
<path class="cls-1" d="M420.21,347.18v-3.9l3.1-5.5h-1.9l-1.5,2.8c-.3.6-.6,1.3-.6,1.3h0s-.3-.7-.6-1.3l-1.5-2.8h-1.9l3.1,5.5v3.9Z" transform="translate(-358.21 -337.58)"/><path class="cls-1" d="M442.71,343.18h0a2.78,2.78,0,0,0,1.6-2.6,2.87,2.87,0,0,0-1.5-2.6,4.09,4.09,0,0,0-1.9-.3h-3v9.4h1.7v-3.5h1.6l1.9,3.5H445l-1.9-3.5Zm-1.6-1h-1.5v-2.9h1.3c1.3,0,1.7.6,1.7,1.5A1.45,1.45,0,0,1,441.11,342.18Z" transform="translate(-358.21 -337.58)"/><path class="cls-1" d="M456.61,342.48c0-3-1.9-4.7-4.8-4.7h-3.2v9.4h3.2A4.44,4.44,0,0,0,456.61,342.48Zm-6.3,3.2v-6.5h1.4a3.2,3.2,0,0,1,0,6.4h-1.4Z" transform="translate(-358.21 -337.58)"/>
<path class="cls-1" d="M433.91,347.18l-4.2-9.4h-.1l-4.2,9.4h1.7c.1-.1.1-.2.2-.3a6.82,6.82,0,0,0,.5-.7l.6-.6.3-.3a.52.52,0,0,1,.4-.2,4.59,4.59,0,0,1,1.6-.7h.1l1.2,2.9h1.9Zm-5.1-3.4c-.1,0-.1.1-.2.1l1.1-2.7h0l.8,1.9A5.09,5.09,0,0,0,428.81,343.78Z" transform="translate(-358.21 -337.58)"/><path class="cls-1" d="M458.81,337.58a1.3,1.3,0,1,1-1.3,1.3A1.32,1.32,0,0,1,458.81,337.58Zm0,2.5a1.1,1.1,0,1,0-1.1-1.1A1.11,1.11,0,0,0,458.81,340.08Zm-.4-1.9h.5a.43.43,0,0,1,.4.4c0,.2-.1.3-.3.4h0v.1l.3.5h-.2l-.3-.6h-.3v.6h-.2v-1.4Zm.5.7a.3.3,0,1,0,0-.6h-.3v.6Z" transform="translate(-358.21 -337.58)"/>
</svg>