<svg xmlns="http://www.w3.org/2000/svg" width="332" height="285" viewBox="0 0 332 285">
    <g fill="none" fill-rule="evenodd">
        <path stroke="#000" stroke-width="2" d="M93.495 229.554h158.14V26H93.495z"/>
        <path stroke="#A0BDD5" stroke-width="2" d="M257.575 229.638h6.647V26h-6.647z"/>
        <path fill="#FBFBFB" stroke="#000" stroke-width="2" d="M205.527 70.28c0-12.855-11.148-23.276-24.9-23.276-13.753 0-24.902 10.422-24.902 23.276 0 12.855 11.15 23.276 24.901 23.276 13.753 0 24.901-10.422 24.901-23.277z"/>
        <path stroke="#A0BDD5" stroke-width="2" d="M193.142 68.781c0-6.013-4.875-10.887-10.888-10.887-6.012 0-10.886 4.874-10.886 10.887 0 6.013 4.874 10.887 10.886 10.887 6.013 0 10.888-4.874 10.888-10.887z"/>
        <path fill="#FBFBFB" stroke="#000" stroke-width="2" d="M180.678 106.573c.336.008.668.033 1.008.028 11.987-.176 22.033-9.823 22.658-21.795.695-13.31-9.907-24.305-23.058-24.274-10.662.025-19.61 7.291-22.212 17.132A1.937 1.937 0 0 1 157.2 79.1l-15.745.037a1.958 1.958 0 0 1-1.936-2.266c3.304-20.874 21.349-36.858 43.162-36.91 24.212 0 43.857 19.6 43.915 43.813l.34 172.3a3.815 3.815 0 0 1-3.808 3.824l-79.992.19a3.816 3.816 0 0 1-3.825-3.807l-.236-128.23c-.027-11.854 9.574-21.478 21.427-21.478h20.175z"/>
        <path stroke="#A0BDD5" stroke-width="2" d="M147.71 242.594h70.203"/>
        <path fill="#FFF" d="M166.037 223.672l34.244-34.244"/>
        <path stroke="#000" stroke-width="2" d="M166.037 223.672l34.244-34.244M177.155 189.296a7.955 7.955 0 1 0-11.251 11.25 7.955 7.955 0 0 0 11.251-11.25zM199.719 211.86a7.956 7.956 0 1 0-11.25 11.253 7.956 7.956 0 0 0 11.25-11.254z"/>
        <path fill="#FBFBFB" stroke="#000" stroke-width="2" d="M180.375 57.14H75.26a8.26 8.26 0 1 0 0 16.518h105.115a8.259 8.259 0 0 0 8.259-8.259 8.259 8.259 0 0 0-8.26-8.259z"/>
        <path stroke="#A0BDD5" stroke-width="2" d="M147.71 170.515h70.203"/>
    </g>
</svg>
