<svg xmlns="http://www.w3.org/2000/svg" width="332" height="285" viewBox="0 0 332 285">
    <g fill="none" fill-rule="evenodd">
        <path fill="#FBFBFB" d="M7.076 219.055v50.197c0 5.124 4.162 9.279 9.297 9.279h20.562c5.135 0 9.299-4.155 9.299-9.28v-.447h240.045v.448c0 5.124 4.163 9.279 9.298 9.279h19.71c5.136 0 9.297-4.155 9.297-9.28v-50.196H7.076z"/>
        <path stroke="#000" stroke-width="2.42" d="M7.076 219.055v50.197c0 5.124 4.162 9.279 9.297 9.279h20.562c5.135 0 9.299-4.155 9.299-9.28v-.447h240.045v.448c0 5.124 4.163 9.279 9.298 9.279h19.71c5.136 0 9.297-4.155 9.297-9.28v-50.196H7.076z"/>
        <path fill="#FBFBFB" d="M292.319 119.007H48.96c-6.69 0-12.116 5.414-12.116 12.093v44.251h267.59v-44.25c0-6.68-5.424-12.094-12.115-12.094"/>
        <path stroke="#000" stroke-width="2.42" d="M292.319 119.007H48.96c-6.69 0-12.116 5.414-12.116 12.093v44.251h267.59v-44.25c0-6.68-5.424-12.094-12.115-12.094z"/>
        <path fill="#FBFBFB" stroke="#A0BDD5" stroke-width="2" d="M99.31 142.505v36.625a4.878 4.878 0 0 0 4.884 4.873h42.135a4.878 4.878 0 0 0 4.883-4.873v-36.625a4.878 4.878 0 0 0-4.883-4.874h-42.135a4.878 4.878 0 0 0-4.883 4.874z"/>
        <path fill="#FFF" d="M186.359 142.505v36.625a4.878 4.878 0 0 0 4.883 4.873h42.135a4.878 4.878 0 0 0 4.883-4.873v-36.625a4.878 4.878 0 0 0-4.883-4.874h-42.135a4.878 4.878 0 0 0-4.883 4.874"/>
        <path fill="#FBFBFB" stroke="#A0BDD5" stroke-width="2" d="M186.359 142.505v36.625a4.878 4.878 0 0 0 4.883 4.873h42.135a4.878 4.878 0 0 0 4.883-4.873v-36.625a4.878 4.878 0 0 0-4.883-4.874h-42.135a4.878 4.878 0 0 0-4.883 4.874z"/>
        <path fill="#FBFBFB" d="M300.388 196.524H31.698c-17.202 0-31.145-1.17-31.145 16v38.795h330.98v-38.795c0-17.17-13.943-16-31.145-16"/>
        <path stroke="#000" stroke-width="2.42" d="M300.388 196.524H31.698c-17.202 0-31.145-1.17-31.145 16v38.795h330.98v-38.795c0-17.17-13.943-16-31.145-16z"/>
        <path fill="#FFF" d="M331.678 223.522c-.02 18.611-.038 22.13-.059 40.742-6.455 1.195-12.975-2.09-17.613-6.295-.689-.622-1.364-1.284-1.76-2.087-.633-1.281-.48-2.75-.317-4.144l3.835-32.567"/>
        <path stroke="#000" stroke-width="2.42" d="M331.678 223.522c-.02 18.611-.038 22.13-.059 40.742-6.455 1.195-12.975-2.09-17.613-6.295-.689-.622-1.364-1.284-1.76-2.087-.633-1.281-.48-2.75-.317-4.144l3.835-32.567"/>
        <path fill="#FFF" d="M.225 210.123l.058 55.827c6.455 1.198 12.975-2.088 17.614-6.292.688-.623 1.364-1.285 1.76-2.088.632-1.281.48-2.749.316-4.143l-3.834-32.567"/>
        <path stroke="#000" stroke-width="2.42" d="M.225 210.123l.058 55.827c6.455 1.198 12.975-2.088 17.614-6.292.688-.623 1.364-1.285 1.76-2.088.632-1.281.48-2.749.316-4.143l-3.834-32.567"/>
        <path fill="#FFF" d="M36.845 175.352l-29.77 22.462 313.254-1.7-15.894-20.762z"/>
        <path stroke="#000" stroke-width="2.42" d="M36.845 175.352l-29.77 22.462 313.254-1.7-15.894-20.762z"/>
        <path fill="#FBFBFB" d="M285.21 79.298H57.296c-1.565 0-2.35-1.888-1.243-2.993l9.464-9.45c.249-.25.588-.39.942-.39h209.589c.354 0 .692.14.943.39l9.463 9.45c1.106 1.105.322 2.993-1.242 2.993"/>
        <path stroke="#000" stroke-width="2.42" d="M285.21 79.298H57.296c-1.565 0-2.35-1.888-1.243-2.993l9.464-9.45c.249-.25.588-.39.942-.39h209.589c.354 0 .692.14.943.39l9.463 9.45c1.106 1.105.322 2.993-1.242 2.993z"/>
        <path fill="#FFF" stroke="#979797" d="M269.187 56.093c0-10.301-9.232-18.652-20.619-18.652s-20.619 8.35-20.619 18.652c0 10.302 9.232 18.652 20.62 18.652 11.386 0 20.618-8.35 20.618-18.652"/>
        <path stroke="#000" stroke-width="2.42" d="M269.187 56.093c0-10.301-9.232-18.652-20.619-18.652s-20.619 8.35-20.619 18.652c0 10.302 9.232 18.652 20.62 18.652 11.386 0 20.618-8.35 20.618-18.652z"/>
        <path fill="#FFF" d="M75.91 72.488h9.362v-48.43H75.91z"/>
        <path stroke="#000" stroke-width="2.42" d="M75.91 72.488h9.362v-48.43H75.91z"/>
        <path fill="#FFF" d="M103.85 23.612l-9.19 1.793 9.314 47.53 9.189-1.794z"/>
        <path stroke="#000" stroke-width="2.42" d="M103.85 23.612l-9.19 1.793 9.314 47.53 9.189-1.794z"/>
        <path fill="#FFF" d="M85.274 72.488h9.505V38.194h-9.505z"/>
        <path stroke="#000" stroke-width="2.42" d="M85.274 72.488h9.505V38.194h-9.505z"/>
        <path fill="#FFF" d="M284.222 85.982H58.997a3.001 3.001 0 0 1-3.005-2.998v-.402a3.002 3.002 0 0 1 3.005-3h225.225a3.002 3.002 0 0 1 3.004 3v.402a3.001 3.001 0 0 1-3.004 2.998"/>
        <path stroke="#000" stroke-width="2.42" d="M284.222 85.982H58.997a3.001 3.001 0 0 1-3.005-2.998v-.402a3.002 3.002 0 0 1 3.005-3h225.225a3.002 3.002 0 0 1 3.004 3v.402a3.001 3.001 0 0 1-3.004 2.998z"/>
        <path fill="#FFF" d="M251.313 46.663l-.073.726-3.546 6.2"/>
        <path stroke="#000" stroke-width="2.42" d="M251.313 46.663l-.073.726-3.546 6.2"/>
        <path fill="#FFF" stroke="#A0BDD5" stroke-width="2" d="M249.535 15.372c3.845-2.83 9.192-6.709 11.635-8.228 0 0 4.025 9.858 2.84 19.42-1.186 9.563-8.041 13.62-12.215 12.17-3.444-1.197-12.347-1.799-9.896-12.128 1.075-4.535 3.877-8.469 7.636-11.234"/>
        <path fill="#FFF" stroke="#A0BDD5" stroke-width="2" d="M249.535 15.372c3.845-2.83 9.192-6.709 11.635-8.228 0 0 4.025 9.858 2.84 19.42-1.186 9.563-8.041 13.62-12.215 12.17-3.444-1.197-12.347-1.799-9.896-12.128 1.075-4.535 3.877-8.469 7.636-11.234z"/>
        <path fill="#FFF" stroke="#A0BDD5" stroke-width="2" d="M230.322 23.607c-.187-3.769-.335-11.432 1.086-17.084 0 0 8.545 2.338 15.649 13.519 2.35 3.698 3.287 7.318 3.489 10.51.435 6.849-7.225 11.095-12.678 6.914-2.574-1.973-5.038-4.855-6.611-9.06-.576-1.537-.854-3.161-.935-4.8"/>
        <path fill="#FFF" stroke="#A0BDD5" stroke-width="2" d="M230.322 23.607c-.187-3.769-.335-11.432 1.086-17.084 0 0 8.545 2.338 15.649 13.519 2.35 3.698 3.287 7.318 3.489 10.51.435 6.849-7.225 11.095-12.678 6.914-2.574-1.973-5.038-4.855-6.611-9.06-.576-1.537-.854-3.161-.935-4.8z"/>
        <path fill="#FFF" stroke="#A0BDD5" stroke-width="2" d="M243.222 38.47s-5.756-14.502-17.64-15.79c-11.885-1.289-14.695 1.332-14.695 1.332s2.971 9.094 8.605 13.407c5.89 4.508 14.95 5.006 14.95 5.006s11.699 2.362 8.78-3.956"/>
        <path fill="#FFF" stroke="#A0BDD5" stroke-width="2" d="M218.843 60.034s.864-13.962 9.94-19.945c5.811-3.83 11.056-.985 12.883 1.552 1.338 1.856 3.5 7.066-.979 11.36-5.842 5.596-21.844 7.033-21.844 7.033zM280.306 39.184s-9.886 8.72-19.92 6.672c-6.423-1.31-8.015-6.689-7.54-9.593.348-2.124 2.382-7.03 8.228-6.911 7.623.155 19.232 9.832 19.232 9.832z"/>
        <path fill="#FFF" stroke="#A0BDD5" stroke-width="2" d="M242.44 50.38c-5.126-3.88-4.33-11.902 1.413-14.798 3.266-1.647 7.133-2.605 10.666-.92 8.249 3.933 3.543 19.265 3.543 19.265s-8.831 1.595-15.622-3.546"/>
        <path fill="#FFF" stroke="#A0BDD5" stroke-width="2" d="M242.44 50.38c-5.126-3.88-4.33-11.902 1.413-14.798 3.266-1.647 7.133-2.605 10.666-.92 8.249 3.933 3.543 19.265 3.543 19.265s-8.831 1.595-15.622-3.546z"/>
    </g>
</svg>
