<svg xmlns="http://www.w3.org/2000/svg" width="334" height="287" viewBox="0 0 334 287">
    <g fill="none" fill-rule="evenodd">
        <path stroke="#000" stroke-width="2" d="M192.537 110.086c30.33 0 55.007 14.769 55.007 32.923 0 18.15-24.677 32.922-55.007 32.922-30.327 0-55.004-14.771-55.004-32.922 0-18.154 24.677-32.923 55.004-32.923"/>
        <path fill="#FBFBFB" stroke="#000" stroke-width="2" d="M192.537 82.569c24.914 0 45.185 12.344 45.185 27.517 0 15.172-20.27 27.517-45.185 27.517-24.912 0-45.182-12.345-45.182-27.517 0-15.173 20.27-27.517 45.182-27.517M333 142.517h-79.562v2.476c0 20.886 16.843 37.817 37.62 37.817h4.322c20.777 0 37.62-16.93 37.62-37.817v-2.476z"/>
        <path fill="#FFF" d="M333 142.517c0-7.056-17.811-12.776-39.781-12.776s-39.781 5.72-39.781 12.776c0 7.057 17.81 12.776 39.78 12.776 21.971 0 39.782-5.72 39.782-12.776"/>
        <path fill="#FBFBFB" stroke="#000" stroke-width="2" d="M333 142.517c0-7.056-17.811-12.776-39.781-12.776s-39.781 5.72-39.781 12.776c0 7.057 17.81 12.776 39.78 12.776 21.971 0 39.782-5.72 39.782-12.776z"/>
        <path fill="#FBFBFB" stroke="#A0BDD5" stroke-width="2" d="M284.878 128.814c.18-5.681 3.564-12.337 4.688-17.189.148-.653 1.034-.76 1.343-.164 2.478 4.807 10.462 15.208 8.34 20.865-.868 2.32-3.212 3.946-5.692 4.24-2.48.296-5.021-.641-6.912-2.258-.564-.48-1.092-1.046-1.313-1.752-.368-1.172-.497-2.43-.454-3.742z"/>
        <path stroke="#000" stroke-width="2" d="M293.206 143.5c1.01-3.93.493-8.1-1.46-11.793M13.4 151.004c-7.808 7.603-12.4 16.9-12.4 26.94 0 25.703 30.105 46.542 67.243 46.542 37.136 0 67.24-20.839 67.24-46.543 0-11.18-5.698-21.442-15.19-29.467"/>
        <path stroke="#000" stroke-width="2" d="M116.303 136.846c2.831 2.538 4.4 5.333 4.4 8.273 0 11.58-24.38 20.969-54.457 20.969-30.074 0-54.456-9.39-54.456-20.97 0-3.494 2.22-6.786 6.14-9.683"/>
        <path stroke="#A0BDD5" stroke-width="2" d="M58.599 67.827c-4.924-2.47-8-7.85-8.684-13.35-.682-5.498.76-11.082 3.042-16.125 1.173-2.594 2.6-5.218 2.565-8.068-.039-3.292-2.02-6.205-4-8.824-2.38-3.149-5.824-6.551-9.622-5.536M70.21 40.31c3.246-2.147 5.228-5.951 5.079-9.737-.145-3.64-2.09-6.969-4.15-10.025-2.06-3.055-4.332-6.09-5.277-9.615-.944-3.527-.223-7.76 2.814-9.933"/>
        <path stroke="#000" stroke-width="2" d="M118.38 131.215c0 11.67-22.869 21.13-51.078 21.13-28.209 0-51.077-9.46-51.077-21.13 0-11.669 22.868-21.129 51.077-21.129 28.21 0 51.077 9.46 51.077 21.13z"/>
        <path stroke="#000" stroke-width="2" d="M25.066 130.724c0-8.141 18.909-14.741 42.236-14.741 23.327 0 42.237 6.6 42.237 14.741"/>
        <path fill="#FFF" d="M69.757 144.839l3.821-96.667h5.02l-3.188 97.294"/>
        <path stroke="#000" stroke-width="2" d="M69.757 144.839l3.821-96.667h5.02l-3.188 97.294"/>
        <path fill="#FFF" d="M83.509 144.483l3.82-74.69h5.02l-3.187 73.955"/>
        <path stroke="#000" stroke-width="2" d="M83.509 144.483l3.82-74.69h5.02l-3.187 73.955"/>
        <g>
            <path fill="#FFF" d="M52.892 144.996L51.095 81.85l5.44-.263 2.418 63.88"/>
            <path stroke="#000" stroke-width="2" d="M52.892 144.996L51.095 81.85l5.44-.263 2.418 63.88"/>
        </g>
        <path stroke="#000" stroke-width="2" d="M109.539 130.724c0 8.141-18.91 14.741-42.237 14.741s-42.236-6.6-42.236-14.741"/>
        <g>
            <path fill="#FFF" d="M174.137 55.181c4.283-4.734 10.254-11.246 13.049-13.888 0 0 7.891 11.87 8.881 24.738.99 12.867-6.907 20.012-12.759 19.217-4.828-.658-16.646.917-16.185-13.292.203-6.238 2.827-12.147 7.014-16.775"/>
            <path stroke="#000" stroke-width="2" d="M174.137 55.181c4.283-4.734 10.254-11.246 13.049-13.888 0 0 7.891 11.87 8.881 24.738.99 12.867-6.907 20.012-12.759 19.217-4.828-.658-16.646.917-16.185-13.292.203-6.238 2.827-12.147 7.014-16.775z"/>
            <path fill="#FFF" d="M151.168 71.093c-1.247-4.898-3.479-14.918-3.121-22.714 0 0 11.811.801 24.087 13.59 4.06 4.23 6.25 8.735 7.364 12.869 2.39 8.875-6.511 16.483-14.764 12.443-3.895-1.907-7.89-5.035-11.068-10.137-1.161-1.865-1.956-3.923-2.498-6.051"/>
            <path stroke="#000" stroke-width="2" d="M151.168 71.093c-1.247-4.898-3.479-14.918-3.121-22.714 0 0 11.811.801 24.087 13.59 4.06 4.23 6.25 8.735 7.364 12.869 2.39 8.875-6.511 16.483-14.764 12.443-3.895-1.907-7.89-5.035-11.068-10.137-1.161-1.865-1.956-3.923-2.498-6.051z"/>
            <path fill="#FFF" d="M172.012 87.176s-11.394-17.505-27.299-16.041c-15.904 1.463-18.89 5.65-18.89 5.65s6.31 11.148 14.834 15.313c8.912 4.355 20.91 2.602 20.91 2.602s15.948-.007 10.445-7.524"/>
            <path stroke="#000" stroke-width="2" d="M172.012 87.176s-11.394-17.505-27.299-16.041c-15.904 1.463-18.89 5.65-18.89 5.65s6.31 11.148 14.834 15.313c8.912 4.355 20.91 2.602 20.91 2.602s15.948-.007 10.445-7.524"/>
            <path fill="#FFF" d="M145.82 121.956s-2.58-18.557 7.715-28.82c6.59-6.572 14.214-4.23 17.283-1.384 2.244 2.082 6.463 8.347 1.737 15.171-6.162 8.898-26.735 15.033-26.735 15.033"/>
            <path stroke="#000" stroke-width="2" d="M145.82 121.956s-2.58-18.557 7.715-28.82c6.59-6.572 14.214-4.23 17.283-1.384 2.244 2.082 6.463 8.347 1.737 15.171-6.162 8.898-26.735 15.033-26.735 15.033z"/>
            <path fill="#FFF" d="M220.764 78.268s-10.628 14.072-24.31 14.047c-8.76-.016-12.277-6.652-12.426-10.59-.11-2.881 1.25-9.861 8.938-11.257 10.022-1.82 27.798 7.8 27.798 7.8"/>
            <path stroke="#000" stroke-width="2" d="M220.764 78.268s-10.628 14.072-24.31 14.047c-8.76-.016-12.277-6.652-12.426-10.59-.11-2.881 1.25-9.861 8.938-11.257 10.022-1.82 27.798 7.8 27.798 7.8z"/>
            <path fill="#FFF" d="M159.214 80.374s3.496 6.278 11.606 8.831"/>
            <path stroke="#000" stroke-width="2" d="M159.993 81.54c1.432 1.939 4.896 5.798 10.827 7.665"/>
            <path fill="#000" d="M158.823 82.428a1.478 1.478 0 1 1 2.444-1.662 1.478 1.478 0 0 1-2.444 1.662"/>
            <path fill="#FFF" d="M172.15 69.288s.582 7.163 6.904 12.85"/>
            <path stroke="#000" stroke-width="2" d="M172.377 70.672c.5 2.359 2.054 7.308 6.677 11.466"/>
            <path fill="#000" d="M170.944 70.995a1.478 1.478 0 1 1 2.913-.5 1.478 1.478 0 0 1-2.913.5"/>
            <path fill="#FFF" d="M162.793 66.477s8.13 13.073 9.142 19.858"/>
            <path stroke="#000" stroke-width="2" d="M163.519 67.675c2.015 3.382 7.59 13.118 8.416 18.66"/>
            <path fill="#000" d="M162.285 68.504a1.478 1.478 0 1 1 2.536-1.518 1.478 1.478 0 0 1-2.536 1.518"/>
            <path fill="#FFF" d="M180.778 63.06s2.481 11.684 2.164 17.822"/>
            <path stroke="#000" stroke-width="2" d="M181.055 64.432c.637 3.266 2.138 11.594 1.887 16.45"/>
            <path fill="#000" d="M179.59 64.778a1.478 1.478 0 1 1 0 0"/>
            <path fill="#FFF" d="M174.155 103.019c-7.745-3.734-8.836-14.473-2.085-19.799 3.84-3.03 8.648-5.315 13.723-4.041 11.85 2.974 9.762 24.348 9.762 24.348s-11.14 4.438-21.4-.508"/>
            <path stroke="#000" stroke-width="2" d="M174.155 103.019c-7.745-3.734-8.836-14.473-2.085-19.799 3.84-3.03 8.648-5.315 13.723-4.041 11.85 2.974 9.762 24.348 9.762 24.348s-11.14 4.438-21.4-.508z"/>
        </g>
        <path stroke="#000" stroke-width="2" d="M132.621 240.793c0-6.512-7.476-11.793-16.698-11.793-9.222 0-16.698 5.28-16.698 11.793 0 6.513 7.476 11.793 16.698 11.793 9.222 0 16.698-5.28 16.698-11.793zM100.207 267.82c0-10.042-11.653-18.182-26.03-18.182-14.375 0-26.03 8.14-26.03 18.181 0 10.042 11.655 18.181 26.03 18.181 14.377 0 26.03-8.14 26.03-18.18z"/>
        <g>
            <path fill="#FBFBFB" d="M152.284 183.561c-7.809 7.603-12.4 16.9-12.4 26.94 0 25.703 30.104 46.542 67.242 46.542 37.135 0 67.24-20.839 67.24-46.543 0-11.18-5.697-21.442-15.19-29.467"/>
            <path stroke="#000" stroke-width="2" d="M152.284 183.561c-7.809 7.603-12.4 16.9-12.4 26.94 0 25.703 30.104 46.542 67.242 46.542 37.135 0 67.24-20.839 67.24-46.543 0-11.18-5.697-21.442-15.19-29.467"/>
        </g>
        <path fill="#FBFBFB" stroke="#000" stroke-width="2" d="M267.19 192.147c0-11.128-26.826-20.147-59.917-20.147s-59.918 9.02-59.918 20.147c0 11.127 26.827 20.146 59.918 20.146 33.09 0 59.916-9.02 59.916-20.146z"/>
        <path fill="#FBFBFB" stroke="#000" stroke-width="2" d="M261.296 182.81c0-9.77-24.187-17.69-54.023-17.69-29.836 0-54.024 7.92-54.024 17.69 0 9.77 24.188 17.69 54.024 17.69 29.836 0 54.023-7.92 54.023-17.69z"/>
        <path fill="#FBFBFB" stroke="#000" stroke-width="2" d="M211.179 176.914c4.053-1.708 6.898-5.707 6.898-10.368 0-6.215-5.056-11.253-11.295-11.253-6.238 0-11.297 5.038-11.297 11.253 0 4.257 2.373 7.961 5.875 9.873"/>
        <path stroke="#A0BDD5" stroke-width="2" d="M290.558 107.138c2.324-1.218 3.931-3.634 4.115-6.19.177-2.457-.868-4.831-2.013-7.03-1.144-2.2-2.428-4.397-2.794-6.836-.365-2.436.434-5.23 2.622-6.479"/>
    </g>
</svg>
